# xmcd CD database file
#
# Track frame offsets:
#	150
#	17770
#	34717
#	47665
#	57535
#	75407
#	100992
#	129662
#	143595
#	161507
#
# Disc length: 2407 seconds
#
# Revision: 0
# Processed by: cddbd v1.5PL3 Copyright (c) Steve Scherf et al.
# Submitted via: CDex 1.51
#
DISCID=7b09650a
DTITLE=Brian Eno - Before And After Science
DYEAR=1900
DGENRE=Misc
TTITLE0=No One Receiving
TTITLE1=Backwater
TTITLE2=Kurt's Rejoinder
TTITLE3=Energy Fools The Majician
TTITLE4=King's Lead Hat
TTITLE5=Here He Comes
TTITLE6=Julie With...
TTITLE7=By The River
TTITLE8=Through Hollow Lands
TTITLE9=Spider And I
EXTD=
EXTT0=
EXTT1=
EXTT2=
EXTT3=
EXTT4=
EXTT5=
EXTT6=
EXTT7=
EXTT8=
EXTT9=
PLAYORDER=
